<svg xmlns="http://www.w3.org/2000/svg" width="1280" height="720" viewBox="0 0 1280 720" role="img" aria-label="BUBBL expense dashboard">
  <defs>
    <linearGradient id="bbg" x1="0" y1="0" x2="1" y2="1">
      <stop offset="0" stop-color="#0ea5e9"/>
      <stop offset="1" stop-color="#1e3a8a"/>
    </linearGradient>
  </defs>
  <rect width="1280" height="720" fill="url(#bbg)"/>
  <rect x="430" y="60" width="420" height="600" rx="40" fill="#0f1a30" stroke="#1f2a44" stroke-width="3"/>
  <rect x="450" y="120" width="380" height="160" rx="20" fill="#16213d"/>
  <text x="470" y="160" font-family="Inter, sans-serif" font-size="14" fill="#93a4c0">Available this month</text>
  <text x="470" y="220" font-family="Inter, sans-serif" font-size="40" font-weight="800" fill="#f5f9ff">₱ 18,420.00</text>
  <text x="470" y="250" font-family="Inter, sans-serif" font-size="13" fill="#10b981">▲ On track to save ₱3,200</text>
  <text x="470" y="100" font-family="Inter, sans-serif" font-size="20" font-weight="800" fill="#fff">BUBBL</text>
  <rect x="450" y="300" width="380" height="120" rx="16" fill="#0f1a30"/>
  <text x="470" y="330" font-family="Inter, sans-serif" font-size="13" fill="#93a4c0">Spending today</text>
  <text x="470" y="370" font-family="Inter, sans-serif" font-size="28" font-weight="700" fill="#60a5fa">₱ 640</text>
  <rect x="470" y="390" width="340" height="8" rx="4" fill="#1f2a44"/>
  <rect x="470" y="390" width="120" height="8" rx="4" fill="#38bdf8"/>
  <g font-family="Inter, sans-serif" font-size="12" fill="#cbd5e1">
    <rect x="450" y="440" width="380" height="60" rx="14" fill="#16213d"/>
    <circle cx="480" cy="470" r="14" fill="#2563eb"/>
    <text x="505" y="465" font-weight="600">Groceries</text>
    <text x="505" y="482" fill="#93a4c0">SM Hypermarket</text>
    <text x="780" y="475" text-anchor="end" fill="#f87171">-₱320</text>

    <rect x="450" y="510" width="380" height="60" rx="14" fill="#16213d"/>
    <circle cx="480" cy="540" r="14" fill="#0ea5e9"/>
    <text x="505" y="535" font-weight="600">Transport</text>
    <text x="505" y="552" fill="#93a4c0">Jeep · 2 rides</text>
    <text x="780" y="545" text-anchor="end" fill="#f87171">-₱24</text>
  </g>
  <rect x="450" y="590" width="380" height="50" rx="25" fill="#1d4ed8"/>
  <text x="640" y="621" text-anchor="middle" font-family="Inter, sans-serif" font-size="14" font-weight="700" fill="#fff">+ Log expense</text>
</svg>
