<svg xmlns="http://www.w3.org/2000/svg" width="1280" height="720" viewBox="0 0 1280 720" role="img" aria-label="BUBBL shared budget">
  <defs>
    <linearGradient id="bbg3" x1="0" y1="0" x2="1" y2="1">
      <stop offset="0" stop-color="#0ea5e9"/>
      <stop offset="1" stop-color="#1e3a8a"/>
    </linearGradient>
  </defs>
  <rect width="1280" height="720" fill="url(#bbg3)"/>
  <rect x="360" y="60" width="560" height="600" rx="32" fill="#0f1a30" stroke="#1f2a44" stroke-width="3"/>
  <text x="640" y="110" text-anchor="middle" font-family="Inter, sans-serif" font-size="20" font-weight="800" fill="#fff">Our Shared Budget</text>
  <text x="640" y="140" text-anchor="middle" font-family="Inter, sans-serif" font-size="13" fill="#93a4c0">Family goals, planned together</text>
  <rect x="400" y="170" width="480" height="120" rx="20" fill="#16213d"/>
  <text x="420" y="205" font-family="Inter, sans-serif" font-size="13" fill="#93a4c0">Shared pool</text>
  <text x="420" y="245" font-family="Inter, sans-serif" font-size="36" font-weight="800" fill="#10b981">₱ 24,600</text>
  <text x="420" y="272" font-family="Inter, sans-serif" font-size="12" fill="#cbd5e1">Goal: ₱40,000 · 61%</text>
  <rect x="420" y="285" width="440" height="8" rx="4" fill="#1f2a44"/>
  <rect x="420" y="285" width="268" height="8" rx="4" fill="#10b981"/>
  <g font-family="Inter, sans-serif" font-size="14" fill="#cbd5e1">
    <rect x="400" y="310" width="480" height="70" rx="16" fill="#0f1a30" stroke="#1f2a44"/>
    <circle cx="430" cy="345" r="18" fill="#3b82f6"/>
    <text x="430" y="351" text-anchor="middle" font-weight="700" fill="#fff">K</text>
    <text x="460" y="340" font-weight="600" fill="#f5f9ff">King</text>
    <text x="460" y="358" fill="#94a3b8" font-size="12">Contributed ₱15,000</text>

    <rect x="400" y="390" width="480" height="70" rx="16" fill="#0f1a30" stroke="#1f2a44"/>
    <circle cx="430" cy="425" r="18" fill="#0ea5e9"/>
    <text x="430" y="431" text-anchor="middle" font-weight="700" fill="#fff">M</text>
    <text x="460" y="420" font-weight="600" fill="#f5f9ff">Partner</text>
    <text x="460" y="438" fill="#94a3b8" font-size="12">Contributed ₱9,600</text>
  </g>
  <rect x="400" y="480" width="480" height="60" rx="16" fill="#0ea5e922" stroke="#0ea5e9" stroke-opacity=".4"/>
  <text x="420" y="515" font-family="Inter, sans-serif" font-size="13" fill="#7dd3fc">House downpayment · due Mar 2026</text>
  <rect x="420" y="525" width="440" height="8" rx="4" fill="#1f2a44"/>
  <rect x="420" y="525" width="268" height="8" rx="4" fill="#7dd3fc"/>
  <rect x="400" y="560" width="480" height="70" rx="20" fill="#1d4ed8"/>
  <text x="640" y="602" text-anchor="middle" font-family="Inter, sans-serif" font-size="14" font-weight="700" fill="#fff">+ Add contribution</text>
</svg>
